<svg xmlns="http://www.w3.org/2000/svg" xmlns:xlink="http://www.w3.org/1999/xlink" viewBox="0 0 530.09 136.73"><defs><style>.cls-1{fill:#fff;}.cls-2{fill-rule:evenodd;fill:url(#linear-gradient);}.cls-3{fill:#ffc92b;}</style><linearGradient id="linear-gradient" x1="51.69" y1="31.67" x2="180.23" y2="105.12" gradientUnits="userSpaceOnUse"><stop offset="0" stop-color="#fff21f"/><stop offset="0.29" stop-color="#ffcd2d"/><stop offset="1" stop-color="#f79233"/></linearGradient></defs><g id="Layer_2" data-name="Layer 2"><g id="Layer_1-2" data-name="Layer 1"><path class="cls-1" d="M61.89,0h57.55C133.9,0,145,1.44,152.92,4.33c14.21,5.05,23.6,14.18,28.66,27.64L152.68,46.4l-.23-.48c-2.18-6.74-5.06-11.54-8.43-14.9A25.43,25.43,0,0,0,132,25.49l-.24-2.89-3.13,2.16a54.11,54.11,0,0,0-9.16-.48H90.79V51L61.89,70.68Zm125,54.81A124.76,124.76,0,0,1,187.6,68a108.38,108.38,0,0,1-5.3,34.62c-3.37,11.3-9.39,19.47-17.58,24.76a46.18,46.18,0,0,1-17.09,6.49c-6,1.2-15.41,1.68-28.19,1.68H61.89V99.29l28.9-14.43v26.69h11.56l.24,2.16,3.37-2.16h13.48c12.78,0,21.44-2.89,26.26-8.42,3.13-3.6,5.54-8.41,7.22-14.9a54.28,54.28,0,0,0,2.41-11.3Z"/><polygon class="cls-2" points="0 122.13 125.71 35.58 128.85 66.59 231.92 14.67 108.37 100.97 104.76 69.71 0 122.13"/><path class="cls-1" d="M266.69,28.68h13v84h-13V104q-7.32,10.2-21,10.2a28.14,28.14,0,0,1-21.12-9.18,31.21,31.21,0,0,1-8.76-22.38,31.15,31.15,0,0,1,8.76-22.44,28.23,28.23,0,0,1,21.12-9.12q13.68,0,21,10.08ZM234.17,96.42a19.57,19.57,0,0,0,27.12,0,18.74,18.74,0,0,0,5.4-13.74,18.74,18.74,0,0,0-5.4-13.74,19.57,19.57,0,0,0-27.12,0,18.74,18.74,0,0,0-5.4,13.74A18.74,18.74,0,0,0,234.17,96.42Z"/><path class="cls-3" d="M302,88.2a16.48,16.48,0,0,0,6.6,10.5,21.22,21.22,0,0,0,12.6,3.66q10.32,0,15.48-7.44l10.68,6.24q-8.88,13.08-26.28,13.08-14.64,0-23.64-8.94t-9-22.62q0-13.44,8.88-22.5t22.8-9.06q13.2,0,21.66,9.24a32,32,0,0,1,8.46,22.44,40.09,40.09,0,0,1-.48,5.4Zm-.12-10.56h35.28q-1.32-7.32-6.06-11A17.45,17.45,0,0,0,320,62.88a18.23,18.23,0,0,0-12,4A17.86,17.86,0,0,0,301.85,77.64Z"/><path class="cls-1" d="M368.45,88.2a16.48,16.48,0,0,0,6.6,10.5,21.22,21.22,0,0,0,12.6,3.66q10.32,0,15.48-7.44l10.68,6.24q-8.88,13.08-26.28,13.08-14.64,0-23.64-8.94t-9-22.62q0-13.44,8.88-22.5t22.8-9.06q13.2,0,21.66,9.24a32,32,0,0,1,8.46,22.44,40.09,40.09,0,0,1-.48,5.4Zm-.12-10.56h35.28q-1.32-7.32-6.06-11a17.45,17.45,0,0,0-11.1-3.72,18.23,18.23,0,0,0-12,4A17.86,17.86,0,0,0,368.33,77.64Z"/><path class="cls-3" d="M437.58,100.44h29.16v12.24H419.93V104L448,64.92H421.13V52.68h44.39v8.63Z"/><path class="cls-1" d="M516.29,52.68h13.8l-23,61.92q-8.64,23.28-29.28,22.08V124.56q6.12.36,9.84-2.58t6.12-9.18l.6-1.2L468.89,52.68h14.16l17.89,43.55Z"/></g></g></svg>